<?xml version="1.0" standalone="no"?>
<!DOCTYPE svg PUBLIC "-//W3C//DTD SVG 20010904//EN"
 "http://www.w3.org/TR/2001/REC-SVG-20010904/DTD/svg10.dtd">
<svg version="1.0" xmlns="http://www.w3.org/2000/svg"
 width="530.000000pt" height="530.000000pt" viewBox="0 0 530.000000 530.000000"
 preserveAspectRatio="xMidYMid meet">
<metadata>
Created by potrace 1.11, written by Peter Selinger 2001-2013
</metadata>
<g transform="translate(0.000000,530.000000) scale(0.100000,-0.100000)"
fill="#000000" stroke="none">
<path d="M2598 5145 c-1 -2 -48 -6 -103 -10 -614 -39 -1193 -304 -1622 -741
-260 -266 -462 -592 -578 -934 -29 -86 -72 -239 -80 -289 -3 -19 -7 -37 -9
-40 -4 -7 -12 -62 -31 -206 -16 -134 -16 -434 2 -570 37 -292 111 -542 233
-789 101 -203 170 -313 297 -473 81 -101 250 -276 325 -336 26 -21 53 -43 60
-50 30 -28 130 -99 223 -159 323 -206 688 -333 1080 -375 88 -10 462 -9 535 1
54 7 204 32 247 40 72 15 233 62 328 97 504 188 921 517 1220 964 78 116 190
325 221 410 9 28 21 55 24 60 26 37 119 376 135 488 3 27 8 59 11 70 20 102
27 485 11 622 -98 838 -605 1568 -1350 1944 -163 83 -180 90 -347 145 -231 77
-418 111 -670 121 -74 4 -140 8 -147 10 -6 2 -13 2 -15 0z m274 -239 c29 -4
64 -8 78 -10 14 -3 45 -7 70 -10 69 -9 275 -62 370 -95 166 -58 342 -141 448
-212 24 -16 46 -29 49 -29 3 0 58 -39 122 -87 203 -153 404 -368 545 -586 149
-229 275 -540 320 -792 3 -16 8 -41 11 -55 3 -14 7 -45 10 -70 3 -25 8 -65 11
-90 10 -67 11 -287 2 -392 -42 -537 -263 -1025 -630 -1401 -253 -257 -517
-430 -842 -552 -137 -51 -357 -106 -476 -120 -122 -14 -173 -18 -290 -19 -144
-2 -279 10 -455 40 -150 25 -388 106 -561 190 -97 47 -278 154 -323 190 -9 7
-52 41 -96 75 -169 132 -363 347 -488 541 -200 310 -318 650 -354 1023 -11
114 -7 369 7 472 7 48 14 98 15 110 2 12 6 34 9 50 4 15 8 37 10 48 60 307
236 678 449 945 114 142 342 354 483 448 343 228 709 358 1089 388 44 4 81 7
82 8 6 5 285 -2 335 -8z"/>
<path d="M4004 4096 c-3 -8 -6 -21 -8 -29 -4 -31 -63 -74 -131 -97 -270 -89
-581 -232 -743 -342 -54 -36 -186 -161 -437 -413 -198 -198 -395 -390 -437
-426 -72 -62 -83 -67 -190 -98 -62 -18 -139 -41 -170 -51 -32 -10 -58 -15 -58
-11 0 5 15 41 34 82 38 83 72 186 64 194 -7 7 -131 -36 -204 -71 -64 -31 -181
-107 -229 -149 -99 -87 -191 -171 -273 -250 -52 -50 -103 -90 -114 -90 -10 0
-30 -11 -43 -23 l-25 -24 21 -17 21 -17 -31 -49 c-92 -150 -171 -313 -171
-353 0 -9 7 -11 23 -6 73 22 134 51 227 105 165 97 161 95 176 75 9 -14 17
-15 32 -7 32 17 46 39 33 54 -8 10 -4 20 17 39 15 14 34 24 42 22 8 -1 40 -7
70 -13 30 -5 70 -12 89 -16 44 -8 80 -27 109 -58 29 -31 35 -102 17 -205 -18
-105 -13 -109 103 -92 50 7 110 10 133 7 67 -9 107 -58 124 -152 30 -168 29
-154 4 -181 -13 -14 -29 -22 -38 -19 -8 3 -27 -6 -42 -21 -28 -27 -28 -27 -8
-43 21 -17 20 -18 -54 -145 -70 -119 -137 -270 -125 -282 3 -2 37 7 76 21 68
25 96 39 260 135 70 41 74 42 93 24 18 -17 20 -16 43 5 14 13 24 33 23 46 -2
16 25 50 93 121 226 235 326 361 386 487 35 74 85 209 79 215 -5 6 -148 -45
-215 -76 -36 -17 -66 -30 -67 -28 -1 1 20 78 48 171 48 160 53 173 105 236 57
70 199 214 500 509 198 194 301 306 361 396 90 133 212 394 309 663 46 128 87
191 125 191 18 0 36 18 34 35 -2 33 -50 49 -61 21z m-717 -671 c66 -28 100
-75 107 -147 4 -43 -24 -111 -56 -138 -32 -27 -97 -48 -133 -43 -52 7 -109 48
-132 95 -71 140 70 293 214 233z m-2100 -1268 l62 -64 -72 -40 c-90 -52 -165
-85 -179 -81 -10 4 109 248 121 248 3 0 34 -29 68 -63z m929 -930 c48 -48 59
-65 49 -74 -16 -15 -238 -124 -242 -119 -7 7 117 255 127 256 3 0 33 -28 66
-63z"/>
</g>
</svg>
