<?xml version="1.0" standalone="no"?>
<!DOCTYPE svg PUBLIC "-//W3C//DTD SVG 20010904//EN"
 "http://www.w3.org/TR/2001/REC-SVG-20010904/DTD/svg10.dtd">
<svg version="1.0" xmlns="http://www.w3.org/2000/svg"
 width="720.000000pt" height="720.000000pt" viewBox="0 0 720.000000 720.000000"
 preserveAspectRatio="xMidYMid meet">
<metadata>
Created by potrace 1.11, written by Peter Selinger 2001-2013
</metadata>
<g transform="translate(0.000000,720.000000) scale(0.100000,-0.100000)"
fill="#000000" stroke="none">
<path d="M3399 6086 c-2 -2 -33 -7 -69 -10 -91 -10 -121 -14 -150 -20 -14 -2
-50 -10 -80 -15 -447 -88 -907 -333 -1235 -657 -158 -156 -226 -237 -342 -411
-186 -278 -335 -658 -379 -963 -2 -19 -6 -44 -9 -55 -26 -131 -27 -580 -1
-710 2 -11 7 -40 11 -65 37 -244 159 -581 297 -825 121 -213 323 -458 523
-634 76 -67 260 -202 350 -255 95 -57 335 -176 356 -176 8 0 19 -4 25 -9 15
-14 290 -100 374 -116 32 -6 208 -34 260 -42 70 -10 466 -10 547 0 157 19 339
59 486 107 639 207 1168 663 1466 1262 57 117 123 272 135 323 2 6 6 17 9 25
12 30 56 207 71 285 34 180 41 260 41 480 0 198 -5 257 -29 410 -9 55 -11 68
-31 150 -9 39 -18 77 -20 85 -1 8 -11 40 -20 70 -71 231 -177 455 -309 655
-234 353 -573 656 -942 842 -102 51 -154 74 -279 123 -132 52 -365 108 -565
136 -47 6 -485 15 -491 10z m416 -230 c44 -4 87 -9 95 -11 8 -2 33 -6 55 -9
165 -24 434 -107 600 -186 170 -81 338 -187 481 -305 53 -43 243 -231 284
-280 453 -546 631 -1254 486 -1935 -21 -96 -32 -138 -66 -240 -46 -140 -69
-194 -138 -330 -381 -744 -1161 -1222 -1997 -1224 -118 0 -303 11 -328 19 -6
2 -30 7 -52 10 -116 16 -403 95 -490 135 -67 30 -255 123 -280 138 -391 227
-727 593 -915 997 -31 66 -100 238 -104 260 -2 6 -12 42 -24 80 -28 91 -50
200 -68 325 -25 181 -23 452 6 640 45 297 159 606 315 855 193 308 491 598
780 760 326 182 608 272 940 300 44 4 81 8 82 9 5 5 264 -2 338 -8z"/>
<path d="M4954 5048 c-5 -7 -9 -21 -9 -31 -3 -31 -59 -72 -131 -96 -137 -46
-352 -134 -491 -202 -255 -124 -285 -149 -693 -558 -325 -326 -442 -438 -498
-477 -14 -9 -77 -29 -334 -104 l-28 -8 29 56 c28 56 94 232 87 232 -23 0 -161
-52 -234 -88 -123 -61 -227 -145 -480 -387 -58 -56 -102 -90 -116 -90 -12 -1
-31 -10 -42 -21 -20 -20 -20 -22 -3 -43 17 -21 16 -24 -51 -137 -84 -142 -150
-294 -127 -294 2 0 28 8 58 19 69 23 135 57 249 126 50 30 95 55 100 55 5 0
13 -8 18 -17 9 -16 12 -16 36 0 25 17 30 28 26 56 -1 7 8 23 20 36 l21 22 101
-18 c169 -31 214 -66 212 -167 0 -55 -13 -161 -20 -173 -2 -3 3 -14 10 -24 12
-17 19 -17 104 -5 113 16 170 8 205 -28 33 -34 40 -55 62 -175 l18 -97 -23
-25 c-14 -15 -30 -23 -39 -20 -14 6 -61 -31 -61 -48 0 -5 7 -15 16 -21 14 -11
6 -28 -60 -141 -71 -120 -105 -195 -122 -261 -6 -24 -5 -26 17 -19 72 22 163
64 267 126 111 65 118 67 140 53 22 -14 25 -14 47 10 14 15 22 33 18 41 -3 10
21 42 70 93 245 254 342 373 407 502 40 78 92 230 80 230 -15 0 -151 -51 -214
-80 -33 -16 -62 -27 -63 -26 -2 1 15 63 38 137 22 74 42 142 44 153 16 75 61
123 603 659 110 108 228 231 261 273 72 89 154 226 218 361 47 101 158 379
187 470 18 54 68 113 96 113 16 0 40 18 40 31 0 13 -31 39 -45 39 -8 0 -17 -6
-21 -12z m-708 -677 c60 -27 102 -90 97 -148 0 -7 -1 -23 -2 -36 -2 -38 -51
-104 -92 -122 -111 -51 -234 19 -244 137 -4 47 20 112 51 140 57 50 121 60
190 29z m-2109 -1266 l63 -64 -83 -45 c-97 -53 -177 -88 -177 -78 0 13 122
252 128 252 4 0 35 -29 69 -65z m930 -929 c63 -64 63 -64 40 -79 -28 -18 -150
-80 -199 -100 l-37 -16 20 51 c11 27 34 75 51 106 18 32 37 67 42 79 6 13 13
23 15 23 2 0 33 -29 68 -64z"/>
</g>
</svg>
